<svg xmlns="http://www.w3.org/2000/svg" width="2400" height="800" viewBox="0 0 2400 800">
  <defs>
    <linearGradient id="bg" x1="0" y1="0" x2="1" y2="1">
      <stop offset="0%" stop-color="#0b0c10"/>
      <stop offset="100%" stop-color="#111317"/>
    </linearGradient>
    <radialGradient id="a" cx="80%" cy="-10%" r="120%">
      <stop offset="0%" stop-color="#59d5ff" stop-opacity="0.45"/>
      <stop offset="100%" stop-color="#59d5ff" stop-opacity="0"/>
    </radialGradient>
    <radialGradient id="b" cx="0%" cy="10%" r="120%">
      <stop offset="0%" stop-color="#7bffb1" stop-opacity="0.45"/>
      <stop offset="100%" stop-color="#7bffb1" stop-opacity="0"/>
    </radialGradient>
    <linearGradient id="strand" x1="0" y1="0" x2="1" y2="1">
      <stop offset="0%" stop-color="#7bffb1"/>
      <stop offset="100%" stop-color="#59d5ff"/>
    </linearGradient>
    <filter id="soft" x="-20%" y="-20%" width="140%" height="140%">
      <feGaussianBlur stdDeviation="12"/>
    </filter>
  </defs>

  <rect width="2400" height="800" fill="url(#bg)"/>
  <rect width="2400" height="800" fill="url(#a)"/>
  <rect width="2400" height="800" fill="url(#b)"/>

  <g opacity="0.9">
    <g transform="translate(360,280)"><circle r="70" fill="none" stroke="#59d5ff" stroke-opacity="0.35" stroke-width="2"/><circle r="42" fill="none" stroke="#7bffb1" stroke-opacity="0.45" stroke-width="2"/><circle r="6" fill="#59d5ff"/><circle r="6" fill="#7bffb1" transform="translate(20,-12)"/><circle r="6" fill="#7bffb1" transform="translate(-18,14)"/></g>
    <g transform="translate(520,420)"><circle r="70" fill="none" stroke="#59d5ff" stroke-opacity="0.35" stroke-width="2"/><circle r="42" fill="none" stroke="#7bffb1" stroke-opacity="0.45" stroke-width="2"/><circle r="6" fill="#59d5ff"/><circle r="6" fill="#7bffb1" transform="translate(20,-12)"/><circle r="6" fill="#7bffb1" transform="translate(-18,14)"/></g>
    <g transform="translate(780,310)"><circle r="70" fill="none" stroke="#59d5ff" stroke-opacity="0.35" stroke-width="2"/><circle r="42" fill="none" stroke="#7bffb1" stroke-opacity="0.45" stroke-width="2"/><circle r="6" fill="#59d5ff"/><circle r="6" fill="#7bffb1" transform="translate(20,-12)"/><circle r="6" fill="#7bffb1" transform="translate(-18,14)"/></g>
    <g transform="translate(980,460)"><circle r="70" fill="none" stroke="#59d5ff" stroke-opacity="0.35" stroke-width="2"/><circle r="42" fill="none" stroke="#7bffb1" stroke-opacity="0.45" stroke-width="2"/><circle r="6" fill="#59d5ff"/><circle r="6" fill="#7bffb1" transform="translate(20,-12)"/><circle r="6" fill="#7bffb1" transform="translate(-18,14)"/></g>
    <g transform="translate(1340,330)"><circle r="70" fill="none" stroke="#59d5ff" stroke-opacity="0.35" stroke-width="2"/><circle r="42" fill="none" stroke="#7bffb1" stroke-opacity="0.45" stroke-width="2"/><circle r="6" fill="#59d5ff"/><circle r="6" fill="#7bffb1" transform="translate(20,-12)"/><circle r="6" fill="#7bffb1" transform="translate(-18,14)"/></g>
    <g transform="translate(1560,250)"><circle r="70" fill="none" stroke="#59d5ff" stroke-opacity="0.35" stroke-width="2"/><circle r="42" fill="none" stroke="#7bffb1" stroke-opacity="0.45" stroke-width="2"/><circle r="6" fill="#59d5ff"/><circle r="6" fill="#7bffb1" transform="translate(20,-12)"/><circle r="6" fill="#7bffb1" transform="translate(-18,14)"/></g>
  </g>

  <path d="M 0 520 C 240 420, 420 720, 660 620 S 1060 420, 1320 520 1600 720, 1880 590 2160 480, 2400 560"
        fill="none" stroke="url(#strand)" stroke-width="16" stroke-opacity="0.8"/>

  <path d="M 260 600 C 520 540, 840 520, 1120 560" fill="none" stroke="#59d5ff" stroke-width="6" stroke-opacity="0.7"/>
  <polygon points="1120,560 1100,550 1100,570" fill="#59d5ff" opacity="0.8"/>

  <g opacity="0.9">
    <!-- stem cell niche dots -->
    <circle cx="1800" cy="520" r="5" fill="#7bffb1" fill-opacity="0.5"/>
<circle cx="1826" cy="538" r="6" fill="#7bffb1" fill-opacity="0.65"/>
<circle cx="1852" cy="520" r="7" fill="#7bffb1" fill-opacity="0.8"/>
<circle cx="1878" cy="538" r="5" fill="#7bffb1" fill-opacity="0.5"/>
<circle cx="1904" cy="520" r="6" fill="#7bffb1" fill-opacity="0.65"/>
<circle cx="1930" cy="538" r="7" fill="#7bffb1" fill-opacity="0.8"/>
<circle cx="1956" cy="520" r="5" fill="#7bffb1" fill-opacity="0.5"/>
<circle cx="1982" cy="538" r="6" fill="#7bffb1" fill-opacity="0.65"/>
<circle cx="2008" cy="520" r="7" fill="#7bffb1" fill-opacity="0.8"/>
<circle cx="2034" cy="538" r="5" fill="#7bffb1" fill-opacity="0.5"/>
<circle cx="2060" cy="520" r="6" fill="#7bffb1" fill-opacity="0.65"/>
<circle cx="2086" cy="538" r="7" fill="#7bffb1" fill-opacity="0.8"/>
<circle cx="2112" cy="520" r="5" fill="#7bffb1" fill-opacity="0.5"/>
<circle cx="2138" cy="538" r="6" fill="#7bffb1" fill-opacity="0.65"/>
<circle cx="2164" cy="520" r="7" fill="#7bffb1" fill-opacity="0.8"/>
<circle cx="2190" cy="538" r="5" fill="#7bffb1" fill-opacity="0.5"/>
<circle cx="2216" cy="520" r="6" fill="#7bffb1" fill-opacity="0.65"/>
<circle cx="2242" cy="538" r="7" fill="#7bffb1" fill-opacity="0.8"/>
  </g>

  <g font-family="ui-sans-serif, system-ui, -apple-system, Segoe UI, Roboto, Helvetica, Arial" font-weight="800" opacity="0.12">
    <text x="120" y="160" font-size="88" fill="#e9eef5">Wnt signaling • Tissue regeneration • Stem cells</text>
  </g>

  <g filter="url(#soft)" opacity="0.25">
    <circle cx="360" cy="280" r="120" fill="#59d5ff"/>
    <circle cx="780" cy="310" r="120" fill="#59d5ff"/>
    <circle cx="1340" cy="330" r="120" fill="#59d5ff"/>
    <circle cx="520" cy="420" r="120" fill="#7bffb1"/>
    <circle cx="980" cy="460" r="120" fill="#7bffb1"/>
    <circle cx="1560" cy="250" r="120" fill="#7bffb1"/>
  </g>
</svg>